<?xml version="1.0" encoding="UTF-8"?> <svg xmlns="http://www.w3.org/2000/svg" width="33" height="33" viewBox="0 0 33 33" fill="none"> <circle cx="16.5" cy="16.5" r="16.5" fill="url(#paint0_linear)"></circle> <path d="M22.8766 19.1894C22.0195 19.1894 21.1779 19.0553 20.3804 18.7918C19.9896 18.6585 19.5091 18.7808 19.2706 19.0257L17.6965 20.2141C15.8709 19.2396 14.7464 18.1154 13.7852 16.3035L14.9386 14.7704C15.2382 14.4711 15.3457 14.034 15.2169 13.6238C14.9522 12.8221 14.8178 11.9809 14.8178 11.1234C14.8178 10.504 14.3138 10 13.6944 10H11.1234C10.504 10 10 10.504 10 11.1234C10 18.2237 15.7764 24 22.8766 24C23.496 24 24 23.496 24 22.8766V20.3128C24 19.6934 23.496 19.1894 22.8766 19.1894Z" fill="white"></path> <defs> <linearGradient id="paint0_linear" x1="17.0683" y1="71.1986" x2="-16.2034" y2="60.5526" gradientUnits="userSpaceOnUse"> <stop stop-color="#F58656"></stop> <stop offset="1" stop-color="#FE5626"></stop> </linearGradient> </defs> </svg> 